<svg xmlns="http://www.w3.org/2000/svg" width="1200" height="800" viewBox="0 0 1200 800" role="img" aria-label="Health charity illustration">
  <defs>
    <linearGradient id="bg" x1="0" y1="0" x2="1" y2="1">
      <stop offset="0%" stop-color="#e9f7f3"/>
      <stop offset="100%" stop-color="#d9eef5"/>
    </linearGradient>
    <linearGradient id="card" x1="0" y1="0" x2="1" y2="1">
      <stop offset="0%" stop-color="#ffffff"/>
      <stop offset="100%" stop-color="#f5fbff"/>
    </linearGradient>
  </defs>
  <rect width="1200" height="800" fill="url(#bg)"/>
  <circle cx="1030" cy="120" r="120" fill="#cceee6" opacity="0.7"/>
  <circle cx="170" cy="690" r="180" fill="#cce4f0" opacity="0.7"/>

  <rect x="220" y="130" width="760" height="540" rx="36" fill="url(#card)" stroke="#bcd7e5" stroke-width="3"/>
  <rect x="290" y="240" width="620" height="320" rx="28" fill="#f7fcff" stroke="#d1e4ee" stroke-width="2"/>

  <path d="M600 305
           C560 250 470 255 440 320
           C408 388 454 455 600 560
           C746 455 792 388 760 320
           C730 255 640 250 600 305Z"
        fill="#0f7b78" opacity="0.92"/>
  <rect x="574" y="360" width="52" height="145" rx="12" fill="#ffffff"/>
  <rect x="527" y="408" width="146" height="52" rx="12" fill="#ffffff"/>

  <text x="600" y="190" text-anchor="middle" font-family="Sora, Arial, sans-serif" font-size="46" font-weight="700" fill="#23445a">
    Health Impact Program
  </text>
  <text x="600" y="630" text-anchor="middle" font-family="Manrope, Arial, sans-serif" font-size="30" fill="#4f6479">
    Supporting treatment, research, and patient care
  </text>
</svg>
